<svg width="52" height="52" viewBox="0 0 52 52" fill="none" xmlns="http://www.w3.org/2000/svg">
<path fill-rule="evenodd" clip-rule="evenodd" d="M26 52C40.3594 52 52 40.3594 52 26C52 11.6406 40.3594 0 26 0C11.6406 0 0 11.6406 0 26C0 40.3594 11.6406 52 26 52ZM16.1299 30.68H25.5C25.7357 30.68 25.8536 30.68 25.9268 30.7532C26 30.8264 26 30.9443 26 31.18V47.1299C26 48.0205 26 48.4659 26.1962 48.5091C26.3925 48.5523 26.5795 48.1482 26.9537 47.3399L37.6851 24.1602C38.2768 22.8821 38.5726 22.2431 38.2777 21.7815C37.9828 21.32 37.2786 21.32 35.8701 21.32H26.5C26.2643 21.32 26.1464 21.32 26.0732 21.2468C26 21.1736 26 21.0557 26 20.82V4.87013C26 3.97947 26 3.53413 25.8038 3.49091C25.6075 3.4477 25.4205 3.85182 25.0463 4.66006L14.3149 27.8398C13.7232 29.1179 13.4274 29.7569 13.7223 30.2185C14.0172 30.68 14.7214 30.68 16.1299 30.68Z" fill="#FFCD03"/>
</svg>
