<svg width="50" height="50" viewBox="0 0 50 50" fill="none" xmlns="http://www.w3.org/2000/svg">
<path d="M9 16L9 1" stroke="white" stroke-width="2" stroke-linecap="round" stroke-linejoin="round"/>
<path fill-rule="evenodd" clip-rule="evenodd" d="M6.23695 6.19343C6.22967 6.20065 6.2224 6.20788 6.21514 6.21514C6.20788 6.2224 6.20065 6.22967 6.19343 6.23695H6.23695V6.19343ZM3.97681 11.2369C3.5791 13.7471 3.5791 17.0619 3.5791 21.5791V32.0001C3.5791 40.4854 3.5791 44.728 6.21514 47.364C8.85118 50.0001 13.0938 50.0001 21.5791 50.0001H44.0001C46.8285 50.0001 48.2427 50.0001 49.1214 49.1214C50.0001 48.2427 50.0001 46.8285 50.0001 44.0001V21.5791C50.0001 13.0938 50.0001 8.85118 47.364 6.21514C44.728 3.5791 40.4854 3.5791 32.0001 3.5791H21.5791C17.0619 3.5791 13.7471 3.5791 11.2369 3.97681V6.23695H16.4738C17.8545 6.23695 18.9738 7.35624 18.9738 8.73695C18.9738 10.1177 17.8545 11.2369 16.4738 11.2369H11.2369V16.4738C11.2369 17.8545 10.1177 18.9738 8.73695 18.9738C7.35624 18.9738 6.23695 17.8545 6.23695 16.4738L6.23695 11.2369H3.97681ZM19.0525 23.2104C18.5002 23.2104 18.0525 23.6582 18.0525 24.2104C18.0525 24.7627 18.5002 25.2104 19.0525 25.2104H34.5261C35.0784 25.2104 35.5261 24.7627 35.5261 24.2104C35.5261 23.6582 35.0784 23.2104 34.5261 23.2104H19.0525ZM26.7892 33.5262C26.237 33.5262 25.7892 33.9739 25.7892 34.5262C25.7892 35.0785 26.237 35.5262 26.7892 35.5262H34.5261C35.0784 35.5262 35.5261 35.0785 35.5261 34.5262C35.5261 33.9739 35.0784 33.5262 34.5261 33.5262H26.7892Z" fill="#FFCD03"/>
<path d="M1 9L16 9" stroke="white" stroke-width="2" stroke-linecap="round" stroke-linejoin="round"/>
</svg>
