<svg width="76" height="60" viewBox="0 0 76 60" fill="none" xmlns="http://www.w3.org/2000/svg">
<path fill-rule="evenodd" clip-rule="evenodd" d="M1.37868 0.87868C0.5 1.75736 0.5 3.17157 0.5 6V20.5C0.5 21.4428 0.5 21.9142 0.792893 22.2071C1.08579 22.5 1.55719 22.5 2.5 22.5H5.75C8.57843 22.5 9.99264 22.5 10.8713 23.3787C11.75 24.2574 11.75 25.6716 11.75 28.5V31.5C11.75 34.3284 11.75 35.7426 10.8713 36.6213C9.99264 37.5 8.57843 37.5 5.75 37.5H2.5C1.55719 37.5 1.08579 37.5 0.792893 37.7929C0.5 38.0858 0.5 38.5572 0.5 39.5V54C0.5 56.8284 0.5 58.2426 1.37868 59.1213C2.25736 60 3.67157 60 6.5 60H69.5C72.3284 60 73.7426 60 74.6213 59.1213C75.5 58.2426 75.5 56.8284 75.5 54V39.5C75.5 38.5572 75.5 38.0858 75.2071 37.7929C74.9142 37.5 74.4428 37.5 73.5 37.5H70.25C67.4216 37.5 66.0074 37.5 65.1287 36.6213C64.25 35.7426 64.25 34.3284 64.25 31.5V28.5C64.25 25.6716 64.25 24.2574 65.1287 23.3787C66.0074 22.5 67.4216 22.5 70.25 22.5H73.5C74.4428 22.5 74.9142 22.5 75.2071 22.2071C75.5 21.9142 75.5 21.4428 75.5 20.5V6C75.5 3.17157 75.5 1.75736 74.6213 0.87868C73.7426 0 72.3284 0 69.5 0H6.5C3.67157 0 2.25736 0 1.37868 0.87868ZM37.7957 22.5223C37.2836 22.6353 36.9683 23.4509 36.3379 25.0821C35.9793 26.0097 35.8 26.4735 35.4646 26.7889C35.3705 26.8774 35.2684 26.9562 35.1596 27.0242C34.7719 27.2667 34.2879 27.3117 33.3199 27.4017C31.6813 27.554 30.862 27.6301 30.6118 28.1149C30.56 28.2153 30.5247 28.324 30.5075 28.4365C30.4246 28.9797 31.0269 29.5484 32.2316 30.6858L32.5661 31.0016L32.5661 31.0016C33.1293 31.5334 33.4109 31.7992 33.5737 32.131C33.6715 32.3301 33.737 32.5444 33.7677 32.7655C33.8188 33.1341 33.7364 33.5198 33.5714 34.2912L33.5125 34.5668C33.2168 35.9501 33.0689 36.6418 33.2535 36.9818C33.4193 37.2872 33.7247 37.4827 34.0621 37.4994C34.4377 37.5181 34.967 37.0705 36.0255 36.1754C36.7229 35.5857 37.0716 35.2908 37.4587 35.1756C37.8124 35.0703 38.1876 35.0703 38.5413 35.1756C38.9284 35.2908 39.2771 35.5857 39.9745 36.1754C41.033 37.0705 41.5623 37.5181 41.9379 37.4994C42.2753 37.4827 42.5807 37.2872 42.7465 36.9818C42.9311 36.6418 42.7832 35.9501 42.4875 34.5668L42.4286 34.2912C42.2636 33.5198 42.1812 33.1341 42.2323 32.7655C42.263 32.5444 42.3285 32.3301 42.4263 32.131C42.5891 31.7992 42.8707 31.5333 43.4339 31.0016L43.7684 30.6858C44.9731 29.5484 45.5754 28.9797 45.4925 28.4365C45.4753 28.324 45.44 28.2153 45.3882 28.1149C45.138 27.6301 44.3187 27.554 42.6801 27.4017C41.7121 27.3117 41.2281 27.2667 40.8404 27.0242C40.7316 26.9562 40.6295 26.8774 40.5354 26.7889C40.2 26.4735 40.0207 26.0097 39.6621 25.0821C39.0317 23.4509 38.7164 22.6353 38.2043 22.5223C38.0696 22.4926 37.9304 22.4926 37.7957 22.5223Z" fill="#FFCD03"/>
</svg>
