<svg width="62" height="59" viewBox="0 0 62 59" fill="none" xmlns="http://www.w3.org/2000/svg">
<path d="M57 2C57.5523 2 58 1.55228 58 1C58 0.447716 57.5523 0 57 0V2ZM2 10V9H0V10H2ZM9 2L57 2V0L9 0V2ZM9 19L35.5882 19V17L9 17V19ZM2 9C2 7.08611 2.00212 5.75129 2.13753 4.74416C2.26907 3.76579 2.50966 3.2477 2.87868 2.87868L1.46447 1.46447C0.661911 2.26702 0.316719 3.27752 0.155365 4.47766C-0.00212479 5.64904 0 7.14265 0 9H2ZM9 0C7.14265 0 5.64904 -0.00212288 4.47766 0.155363C3.27752 0.316719 2.26702 0.661911 1.46447 1.46447L2.87868 2.87868C3.2477 2.50966 3.76579 2.26907 4.74416 2.13753C5.75129 2.00212 7.08611 2 9 2V0ZM0 10C0 11.8573 -0.00212479 13.351 0.155365 14.5223C0.316719 15.7225 0.661911 16.733 1.46447 17.5355L2.87868 16.1213C2.50966 15.7523 2.26907 15.2342 2.13753 14.2558C2.00212 13.2487 2 11.9139 2 10H0ZM9 17C7.08611 17 5.75129 16.9979 4.74416 16.8625C3.76579 16.7309 3.2477 16.4903 2.87868 16.1213L1.46447 17.5355C2.26702 18.3381 3.27752 18.6833 4.47766 18.8446C5.64904 19.0021 7.14265 19 9 19V17Z" fill="#FFCD03"/>
<path d="M1 28L1 9" stroke="#FFCD03" stroke-width="2"/>
<path d="M61.5 48V47.5H61H49C47.1002 47.5 45.7257 47.4989 44.6775 47.358C43.6437 47.219 43.0025 46.9523 42.5251 46.4749C42.0477 45.9975 41.781 45.3563 41.642 44.3225C41.5011 43.2743 41.5 41.8998 41.5 40V36C41.5 34.1002 41.5011 32.7257 41.642 31.6775C41.781 30.6437 42.0477 30.0025 42.5251 29.5251C43.0025 29.0477 43.6437 28.781 44.6775 28.642C45.7257 28.5011 47.1002 28.5 49 28.5L61 28.5H61.5V28V20L61.5 19.9671C61.5 19.5238 61.5 19.1419 61.4589 18.8361C61.4149 18.5083 61.3155 18.1942 61.0607 17.9393C60.8058 17.6845 60.4917 17.5851 60.1639 17.5411C59.8581 17.5 59.4761 17.5 59.0329 17.5H59L1 17.5H0.5V18L0.5 56V56.0329C0.499973 56.4761 0.499954 56.8581 0.541069 57.1639C0.585136 57.4917 0.684509 57.8058 0.939339 58.0607C1.19417 58.3155 1.50835 58.4149 1.8361 58.4589C2.14193 58.5 2.52384 58.5 2.96709 58.5L3 58.5L59 58.5C59.011 58.5 59.022 58.5 59.0329 58.5C59.4762 58.5 59.8581 58.5 60.1639 58.4589C60.4917 58.4149 60.8058 58.3155 61.0607 58.0607C61.3155 57.8058 61.4149 57.4917 61.4589 57.1639C61.5 56.8581 61.5 56.4762 61.5 56.0329C61.5 56.022 61.5 56.011 61.5 56V48Z" fill="#FFCD03" stroke="#FFCD03"/>
</svg>
