
<svg width="58" height="58" viewBox="0 0 58 58" fill="none" xmlns="http://www.w3.org/2000/svg">
<path fill-rule="evenodd" clip-rule="evenodd" d="M34.5661 0.258547C34.8518 0.517095 34.8946 0.945061 34.9802 1.80099L35.6372 8.37088C35.8005 10.0044 35.8822 10.8212 36.435 11.0502C36.9878 11.2792 37.6231 10.7594 38.8937 9.71979L44.0039 5.53876C44.6696 4.99405 45.0025 4.72169 45.3873 4.74088C45.7722 4.76008 46.0763 5.06421 46.6846 5.67246L52.3273 11.3152C52.9356 11.9235 53.2397 12.2276 53.2589 12.6124C53.2781 12.9973 53.0057 13.3301 52.461 13.9959L48.2797 19.1064C47.2401 20.377 46.7203 21.0123 46.9493 21.5651C47.1783 22.1179 47.9951 22.1996 49.6286 22.3629L56.199 23.02C57.0549 23.1056 57.4829 23.1484 57.7415 23.4341C58 23.7198 58 24.1499 58 25.0101V32.9901C58 33.8503 58 34.2804 57.7415 34.5661C57.4829 34.8518 57.0549 34.8946 56.199 34.9802L49.6299 35.6371C47.9963 35.8004 47.1796 35.8821 46.9506 36.4349C46.7216 36.9878 47.2414 37.6231 48.281 38.8936L52.4611 44.0027C53.0058 44.6685 53.2782 45.0013 53.259 45.3862C53.2398 45.771 52.9357 46.0751 52.3274 46.6834L46.6847 52.3261C46.0764 52.9344 45.7723 53.2385 45.3874 53.2577C45.0026 53.2769 44.6697 53.0045 44.004 52.4598L38.8939 48.2788L38.8938 48.2788C37.6233 47.2393 36.988 46.7195 36.4352 46.9485C35.8823 47.1774 35.8007 47.9942 35.6373 49.6277L34.9802 56.199C34.8946 57.0549 34.8518 57.4829 34.5661 57.7415C34.2804 58 33.8503 58 32.9901 58H25.0101C24.1499 58 23.7198 58 23.4341 57.7415C23.1484 57.4829 23.1056 57.0549 23.02 56.199L22.3629 49.6286C22.1996 47.9951 22.1179 47.1783 21.5651 46.9493C21.0123 46.7203 20.377 47.2401 19.1064 48.2797L13.9958 52.4611C13.33 53.0058 12.9972 53.2782 12.6123 53.259C12.2275 53.2398 11.9234 52.9357 11.3151 52.3274L5.67237 46.6847C5.06412 46.0764 4.75999 45.7723 4.7408 45.3874C4.7216 45.0026 4.99396 44.6697 5.53867 44.004L9.71978 38.8937C10.7594 37.6231 11.2791 36.9878 11.0502 36.435C10.8212 35.8822 10.0044 35.8005 8.37087 35.6372L1.80099 34.9802C0.94506 34.8946 0.517095 34.8518 0.258547 34.5661C0 34.2804 0 33.8503 0 32.9901V25.0101C0 24.1499 0 23.7198 0.258548 23.4341C0.517093 23.1484 0.945055 23.1056 1.80097 23.02H1.80099L8.37215 22.3629C10.0057 22.1995 10.8225 22.1178 11.0514 21.565C11.2804 21.0122 10.7606 20.3769 9.72105 19.1063L5.53876 13.9946C4.99405 13.3289 4.72169 12.996 4.74089 12.6112C4.76008 12.2263 5.06421 11.9222 5.67246 11.3139L11.3152 5.67119C11.9235 5.06293 12.2276 4.75881 12.6124 4.73961C12.9973 4.72042 13.3301 4.99278 13.9959 5.53749L19.1065 9.71892C20.3771 10.7585 21.0124 11.2783 21.5652 11.0493C22.1181 10.8203 22.1997 10.0035 22.3631 8.37001L23.02 1.80099C23.1056 0.945061 23.1484 0.517095 23.4341 0.258547C23.7198 0 24.1499 0 25.0101 0H32.9901C33.8503 0 34.2804 0 34.5661 0.258547ZM29 40.6C35.4065 40.6 40.6 35.4065 40.6 29C40.6 22.5935 35.4065 17.4 29 17.4C22.5935 17.4 17.4 22.5935 17.4 29C17.4 35.4065 22.5935 40.6 29 40.6Z" fill="#B9B9B9"/>
</svg>
